<svg width="69" height="68" viewBox="0 0 69 68" fill="none" xmlns="http://www.w3.org/2000/svg">
<rect x="0.500244" width="68" height="68" rx="34" fill="#FFE0CC"/>
<path fill-rule="evenodd" clip-rule="evenodd" d="M22.2065 37.1097C22.149 37.0968 22.1175 37.0796 22.1175 37.0796C21.971 37.0229 21.8559 36.8968 21.8198 36.733C21.6991 36.186 21.6147 35.6278 21.5665 35.0661H18.8084C18.5413 35.0661 18.3216 34.8501 18.3216 34.5818C18.3216 34.3135 18.5413 34.0975 18.8084 34.0975H21.5193C21.5187 34.046 21.5184 33.9944 21.5184 33.9429C21.5184 26.7896 27.386 20.9664 34.5981 20.9664C38.4496 20.9664 42.0871 22.641 44.5798 25.5559C44.7755 25.768 45.0034 26.1216 45.0888 26.5256C45.1764 26.9398 45.1132 27.4114 44.7129 27.8162C44.4818 28.0495 44.2242 28.1601 43.9735 28.1951C43.9757 28.2444 43.975 28.2949 43.9705 28.3461C43.9433 28.6785 43.77 28.9703 43.4959 29.1919L43.4956 29.1922C42.974 29.6117 42.4081 29.4841 41.9898 29.2433C41.8969 29.3756 41.7714 29.4945 41.6076 29.5813L41.6071 29.5817C41.3496 29.717 41.0791 29.7629 40.8035 29.713C40.5809 29.6726 40.3632 29.5713 40.1519 29.4171C40.1022 29.4697 40.0464 29.519 39.9843 29.5633C40.975 30.7581 41.5706 32.2871 41.5706 33.9519C41.5706 35.3909 41.1244 36.7725 40.302 37.9309C40.8206 37.9647 41.1841 38.0266 41.2574 38.039L41.2673 38.0407L41.271 38.0413C41.5304 38.09 41.7095 38.3408 41.6592 38.6048C41.61 38.8627 41.3602 39.0369 41.1 38.9917L41.0996 38.9916L41.0909 38.9904L41.068 38.9869C41.049 38.984 41.0219 38.9799 40.9872 38.9749C40.9177 38.9649 40.8177 38.9516 40.6933 38.938C40.4443 38.9107 40.0982 38.8826 39.7045 38.879C38.9117 38.8719 37.9494 38.9648 37.197 39.3454C36.5695 39.663 36.2371 40.0364 35.8661 40.4533L35.8622 40.4576L35.8618 40.4581L35.8606 40.4595L35.8421 40.4803C35.8264 40.5013 35.809 40.5211 35.7899 40.5394C35.7859 40.5439 35.7818 40.5485 35.7778 40.553C35.7384 40.6311 35.6784 40.6977 35.6041 40.7446C35.4035 40.96 35.1791 41.1756 34.8972 41.3696C34.4868 41.6521 33.962 41.8841 33.2174 42.0198C32.5915 42.1357 32.1681 42.1075 31.7322 42.0759C31.5299 42.0626 31.3234 42.0496 31.0868 42.0496C30.9447 42.0496 30.8479 42.0798 30.7896 42.1182C30.7362 42.1534 30.7093 42.1983 30.7034 42.2572L30.7033 42.2585C30.7002 42.2876 30.7207 42.3381 30.8059 42.4035C30.8427 42.4316 30.8814 42.4544 30.9118 42.4703C30.9252 42.4773 30.9364 42.4826 30.9442 42.4861L30.96 42.4926C32.0917 42.9575 33.2895 43.1943 34.5278 43.1943C35.6729 43.1943 36.7955 42.9882 37.8563 42.5849L37.8558 42.585L37.9192 42.7492L37.8566 42.5847L37.8563 42.5849C38.1108 42.4869 38.3859 42.6151 38.4836 42.8629C38.5848 43.1151 38.4518 43.3939 38.2032 43.4898L38.2024 43.4902C37.0294 43.9356 35.7921 44.1629 34.5278 44.1629C33.1626 44.1629 31.8382 43.8992 30.5875 43.3857L30.5865 43.3852C30.1871 43.2181 29.6703 42.7996 29.7361 42.1598C29.7904 41.607 30.2514 41.0765 31.0868 41.0765C31.3585 41.0765 31.584 41.0902 31.796 41.1037L31.7964 41.1037C32.2035 41.1303 32.537 41.1513 33.0416 41.0615C33.3307 41.0081 33.5727 40.9397 33.7802 40.8595C33.3098 40.8317 32.764 40.7388 32.1558 40.53C31.2692 40.2276 30.6936 39.7835 30.2869 39.4697L30.2764 39.4615L30.2723 39.4584C30.1263 39.3453 30.0063 39.2525 29.9061 39.1912C29.8565 39.1608 29.819 39.1427 29.7917 39.1337C29.7772 39.1289 29.7692 39.1278 29.7663 39.1276C29.731 39.137 29.7006 39.1581 29.6748 39.1876C29.7507 39.2689 29.8233 39.3459 29.8561 39.3787C30.0518 39.5618 30.0596 39.8704 29.8694 40.0617C29.6848 40.2562 29.3742 40.2632 29.1823 40.0729C29.1291 40.0201 28.995 39.8766 28.8909 39.7651L28.8868 39.7608C28.8516 39.723 28.8196 39.6888 28.7945 39.6621C28.7565 39.6311 28.725 39.5965 28.6937 39.5594C28.5147 39.3651 28.3678 39.2529 28.2481 39.2016C28.1366 39.1538 28.0534 39.1599 27.976 39.2009L27.9744 39.2017C27.9458 39.2166 27.9156 39.2556 27.8942 39.3304C27.8829 39.3701 27.8772 39.4097 27.8742 39.441C28.0736 39.7177 28.295 40.0185 28.4224 40.1582C28.6052 40.3544 28.593 40.6644 28.3874 40.8426C28.1869 41.0249 27.8782 41.0012 27.7028 40.8064C27.527 40.6114 27.2256 40.1941 27.0031 39.8862L26.9967 39.8773C26.938 39.7961 26.8847 39.7222 26.8397 39.6608C26.7455 39.5802 26.6321 39.5013 26.5206 39.4625C26.4088 39.4235 26.3198 39.4299 26.2417 39.4917C26.1568 39.5592 26.1319 39.6163 26.1278 39.6672L26.1277 39.6683C26.1216 39.7382 26.1479 39.8236 26.1916 39.9086C26.486 40.3006 26.9894 40.8956 27.2574 41.1884L27.2584 41.1895C27.4349 41.3856 27.4227 41.6944 27.2217 41.8724C27.0252 42.0465 26.7165 42.0348 26.5376 41.8363C26.3128 41.5889 25.9465 41.1615 25.6468 40.7849C25.6208 40.7682 25.5388 40.7202 25.438 40.7003C25.3319 40.6794 25.216 40.6899 25.1085 40.7961C24.9417 40.9652 24.9538 41.1646 25.0362 41.3626C25.0772 41.4612 25.1328 41.5499 25.1811 41.6166C25.2256 41.6781 25.2603 41.716 25.265 41.7212L25.2656 41.7218L25.2797 41.7359L25.2845 41.7414C27.5929 44.4454 30.9624 45.9957 34.5323 45.9957C41.2103 45.9957 46.6384 40.6089 46.6384 33.9878C46.6384 33.1157 46.5452 32.2482 46.3588 31.4031L46.3587 31.4026C46.3024 31.1442 46.464 30.8833 46.728 30.8267L46.7306 30.8261L46.7342 30.8254C46.7546 30.8214 46.7921 30.8138 46.8325 30.8138C46.8325 30.8138 46.8919 30.8162 46.9285 30.8254C46.9609 30.8336 47.0085 30.8556 47.0085 30.8556C47.155 30.9122 47.27 31.0383 47.3061 31.2022C47.5071 32.1129 47.6075 33.055 47.6075 33.9923C47.6075 34.0274 47.6073 34.0625 47.6071 34.0975H50.3155C50.5826 34.0975 50.8023 34.3135 50.8023 34.5818C50.8023 34.8501 50.5826 35.0661 50.3155 35.0661H47.5631C47.011 41.7193 41.3754 46.9687 34.5278 46.9687C30.6763 46.9687 27.0388 45.2942 24.5462 42.3793C24.3504 42.1671 24.1225 41.8135 24.0371 41.4096C23.9496 40.9953 24.0127 40.5237 24.4131 40.119C24.6441 39.8857 24.9017 39.7751 25.1525 39.7401C25.1503 39.6908 25.1509 39.6402 25.1554 39.5891C25.1826 39.2567 25.3559 38.9648 25.63 38.7432L25.6303 38.743C26.1519 38.3235 26.7178 38.4511 27.1361 38.6918C27.2291 38.5595 27.3545 38.4407 27.5183 38.3538L27.5189 38.3535C27.7764 38.2181 28.0469 38.1722 28.3224 38.2222C28.5451 38.2625 28.7627 38.3639 28.974 38.518C29.0397 38.4486 29.116 38.3849 29.2034 38.3307C28.2153 37.1367 27.6213 35.6098 27.6213 33.9474C27.6213 32.5242 28.0578 31.1572 28.8629 30.0067C28.3236 29.9736 27.9436 29.9089 27.8685 29.8961L27.8586 29.8944L27.8549 29.8938C27.5955 29.8451 27.4164 29.5944 27.4667 29.3304C27.5159 29.0725 27.7657 28.8983 28.0259 28.9435L28.0263 28.9435L28.035 28.9448L28.058 28.9483C28.0769 28.9512 28.1041 28.9553 28.1388 28.9603C28.2082 28.9702 28.3082 28.9836 28.4326 28.9972C28.6816 29.0244 29.0278 29.0526 29.4214 29.0561C30.2142 29.0633 31.1765 28.9704 31.9289 28.5898C32.5564 28.2722 32.8888 27.8988 33.2599 27.4819L33.2637 27.4776L33.2642 27.4771L33.2654 27.4757L33.2838 27.4548C33.2995 27.4338 33.317 27.414 33.3361 27.3958C33.5851 27.1149 33.857 26.8214 34.2287 26.5656C34.6392 26.2831 35.164 26.0511 35.9085 25.9153C36.5344 25.7995 36.9578 25.8277 37.3937 25.8592C37.5961 25.8726 37.8025 25.8856 38.0392 25.8856C38.1812 25.8856 38.2781 25.8554 38.3364 25.8169C38.3897 25.7818 38.4167 25.7368 38.4225 25.6779L38.4226 25.6767C38.4257 25.6476 38.4053 25.597 38.32 25.5317C38.2833 25.5035 38.2445 25.4807 38.2141 25.4649C38.2007 25.4579 38.1895 25.4526 38.1818 25.449L38.1659 25.4425C37.0343 24.9777 35.8364 24.7409 34.5982 24.7409C33.453 24.7409 32.3304 24.947 31.2697 25.3503L31.2701 25.3501L31.2067 25.1859L31.2693 25.3504L31.2697 25.3503C31.0151 25.4482 30.74 25.3201 30.6423 25.0722C30.5411 24.82 30.6742 24.5412 30.9227 24.4453L30.9236 24.445C32.0966 23.9996 33.3338 23.7723 34.5982 23.7723C35.9633 23.7723 37.2877 24.036 38.5384 24.5495L38.5395 24.5499C38.9389 24.717 39.4556 25.1356 39.3898 25.7753C39.3355 26.3282 38.8745 26.8586 38.0392 26.8586C37.7674 26.8586 37.5419 26.8449 37.3299 26.8315L37.3296 26.8315C36.9225 26.8048 36.589 26.7839 36.0843 26.8737C35.7974 26.9267 35.5569 26.9944 35.3504 27.0738C35.3657 27.0754 35.3809 27.0771 35.3961 27.0788C35.8549 27.1102 36.3835 27.2038 36.9701 27.4052C37.8034 27.6893 38.3619 28.0987 38.7637 28.4075C38.8345 28.4599 38.9042 28.5137 38.9729 28.5688C39.0668 28.6405 39.1484 28.7002 39.2198 28.744C39.2694 28.7743 39.3069 28.7924 39.3342 28.8015C39.3487 28.8063 39.3567 28.8073 39.3596 28.8076C39.395 28.7982 39.4254 28.777 39.4511 28.7476C39.3752 28.6663 39.3026 28.5892 39.2698 28.5564C39.0741 28.3734 39.0663 28.0648 39.2566 27.8735C39.4411 27.6789 39.7518 27.6719 39.9436 27.8623C39.9969 27.9151 40.131 28.0587 40.2352 28.1702L40.2391 28.1744C40.2743 28.2121 40.3064 28.2464 40.3314 28.2731C40.3694 28.3041 40.401 28.3387 40.4322 28.3757C40.6113 28.57 40.7582 28.6822 40.8778 28.7336C40.9893 28.7814 41.0725 28.7753 41.15 28.7342L41.1515 28.7334C41.1801 28.7186 41.2104 28.6796 41.2317 28.6047C41.243 28.565 41.2488 28.5255 41.2517 28.4941C41.0523 28.2174 40.8309 27.9167 40.7035 27.777C40.5208 27.5807 40.5329 27.2707 40.7385 27.0926C40.9391 26.9103 41.2477 26.934 41.4231 27.1288C41.5989 27.3238 41.9003 27.7409 42.1227 28.0489L42.1292 28.0579C42.1879 28.1391 42.2412 28.2129 42.2862 28.2744C42.3804 28.355 42.4939 28.4338 42.6053 28.4727C42.7171 28.5117 42.8061 28.5053 42.8842 28.4434C42.9692 28.376 42.9941 28.3189 42.9982 28.268L42.9983 28.2669C43.0043 28.197 42.9781 28.1115 42.9344 28.0266C42.6399 27.6346 42.1365 27.0395 41.8685 26.7468L41.8675 26.7457C41.691 26.5495 41.7033 26.2407 41.9042 26.0628C42.1007 25.8887 42.4094 25.9004 42.5883 26.0988C42.8131 26.3463 43.1794 26.7737 43.4791 27.1503C43.5051 27.1669 43.5871 27.2149 43.6879 27.2348C43.794 27.2558 43.9099 27.2453 44.0174 27.139C44.1842 26.97 44.1721 26.7706 44.0898 26.5726C44.0487 26.474 43.9931 26.3852 43.9449 26.3186C43.9003 26.257 43.8657 26.2192 43.8609 26.2139L43.8603 26.2133L43.8462 26.1993L43.8414 26.1937C41.533 23.4898 38.1635 21.9395 34.5936 21.9395C27.9156 21.9395 22.4875 27.3262 22.4875 33.9474C22.4875 34.8195 22.5807 35.6869 22.7671 36.5321L22.7672 36.5325C22.8235 36.7909 22.6619 37.0518 22.3979 37.1085L22.3953 37.109L22.3917 37.1097C22.3713 37.1138 22.3338 37.1213 22.2935 37.1213C22.2935 37.1213 22.2389 37.117 22.2065 37.1097ZM35.255 28.0333C34.6567 28.0019 34.2163 28.1 33.9496 28.1686C33.6649 28.488 33.3398 28.8476 32.8552 29.1742C33.2509 29.3911 33.5128 29.778 33.6182 29.9336L33.6254 29.9442L33.6929 30.038C33.7142 30.0673 33.736 30.0969 33.758 30.1268L33.7584 30.1273L33.759 30.1282C34.0017 30.4577 34.2701 30.8222 34.2289 31.2354C34.1974 31.5884 33.9677 31.9011 33.6524 32.062C33.5038 32.1424 33.3371 32.1737 33.166 32.1737C33.0863 32.171 33.0171 32.1544 32.9546 32.1394C32.8053 32.1035 32.694 32.0767 32.5669 32.272C32.5462 32.3053 32.5271 32.3392 32.5083 32.3726C32.4414 32.4913 32.3772 32.6053 32.2472 32.6785C32.0238 32.8078 31.7788 32.7661 31.5377 32.725C31.4872 32.7164 31.4368 32.7078 31.3869 32.7009C31.3621 32.6968 31.3339 32.6911 31.3039 32.6851L31.3035 32.685C31.1704 32.6583 30.9988 32.6239 30.896 32.6785C30.6573 32.8036 30.36 33.6749 30.4411 33.8179C30.5222 33.9608 31.3284 34.0636 31.3284 34.0636C31.3284 34.0636 31.9904 33.7464 32.4048 33.7776C32.7136 33.8005 32.9022 33.95 33.0548 34.0709C33.1403 34.1387 33.2144 34.1975 33.2921 34.22L33.3344 34.2323L33.3757 34.2442C33.5873 34.3051 33.9144 34.3993 34.1073 34.497C34.2843 34.5865 34.5162 34.9145 34.6871 35.1562C34.7294 35.2159 34.7679 35.2703 34.8009 35.3146L34.7919 35.3101C34.8318 35.3647 34.8807 35.4203 34.9321 35.4786C35.0952 35.6638 35.2828 35.8769 35.2828 36.1724C35.2828 36.5253 34.868 36.7916 34.576 36.9792C34.428 37.0742 34.3116 37.1489 34.2964 37.2045C34.2835 37.2477 34.2629 37.3249 34.2379 37.4187C34.1672 37.6839 34.0612 38.081 33.9947 38.2098C33.9046 38.384 33.4903 38.6521 33.4903 38.6521C33.4903 38.6521 33.5713 39.5144 33.0984 39.5144C32.9678 39.5144 32.6345 39.4608 32.5489 39.3714C32.4635 39.2798 32.423 38.9791 32.3814 38.6698C32.3419 38.376 32.3014 38.0744 32.2202 37.9372C32.1144 37.7588 31.9131 37.5252 31.715 37.2951C31.4914 37.0355 31.2718 36.7805 31.1978 36.6147C31.0874 36.3639 31.0557 36.1387 31.0247 35.9188C30.995 35.708 30.966 35.5021 30.869 35.2833C30.7802 35.0814 30.591 34.976 30.4639 34.9052C30.4363 34.8898 30.4116 34.8761 30.3916 34.8633C29.9772 34.6087 29.6304 34.3451 29.5538 34.2155C29.4881 34.1002 29.4671 33.9638 29.4473 33.835C29.4265 33.6993 29.407 33.5721 29.3376 33.4872C29.257 33.3886 28.8961 33.3727 28.6178 33.3759C28.5996 33.5648 28.5904 33.7555 28.5904 33.9474C28.5904 37.1742 31.195 39.8114 34.4313 39.8948C34.7514 39.8693 35.0013 39.8116 35.1763 39.7665C35.5465 39.3512 35.9852 38.8678 36.7541 38.4774C37.4776 38.1111 38.3158 37.9621 39.0669 37.9165C39.5108 37.4249 39.8652 36.87 40.1207 36.274C40.1056 36.2703 40.0905 36.2663 40.0754 36.2623C39.9938 36.2407 39.9115 36.2189 39.8273 36.2439C39.5856 36.3138 39.4157 36.5024 39.2436 36.6934C39.1078 36.8441 38.9707 36.9963 38.7958 37.0928C38.431 37.2983 37.796 37.4279 37.4852 37.0839C37.3615 36.9452 37.3147 36.7764 37.2677 36.607C37.2224 36.4435 37.1769 36.2794 37.0618 36.1412C37.0143 36.0842 36.9642 36.0361 36.9157 35.9895C36.7436 35.8245 36.5923 35.6792 36.652 35.2297C36.67 35.1046 36.7105 34.9885 36.7826 34.8946C36.9347 34.6912 37.1445 34.5231 37.355 34.3546C37.6991 34.0789 38.0449 33.8019 38.1428 33.3666C38.2781 32.7731 37.9256 32.6295 37.5424 32.4734C37.3515 32.3957 37.153 32.3148 37.0033 32.1737C36.8682 32.0441 36.7871 31.8565 36.7871 31.6688C36.7871 31.451 36.9462 31.2085 37.0922 30.9859C37.1618 30.8798 37.2284 30.7782 37.2735 30.6859C37.2996 30.6341 37.3236 30.5821 37.3474 30.5305C37.4222 30.3683 37.495 30.2104 37.6248 30.0783C37.868 29.8325 38.2013 29.6896 38.5481 29.6896C38.629 29.6896 38.7125 29.6937 38.797 29.7021C37.8615 28.7918 36.6272 28.1822 35.255 28.0333Z" fill="#FF6500"/>
</svg>
