<svg width="68" height="69" viewBox="0 0 68 69" fill="none" xmlns="http://www.w3.org/2000/svg">
<rect y="0.5" width="68" height="68" rx="34" fill="#FFF3E6"/>
<path fill-rule="evenodd" clip-rule="evenodd" d="M23.3073 20.342H23.2953C23.0423 20.2864 22.7813 20.2532 22.5086 20.2532C20.5736 20.2567 19 21.7083 19 23.4968V47.0154C19 47.2007 19.0923 47.3635 19.233 47.4746C19.7107 48.5558 20.867 49.2855 22.1513 49.2855C23.8896 49.2855 25.3026 47.982 25.3026 46.3749V45.1899C25.3026 44.2716 24.7566 43.4346 23.8776 43.0013L23.8696 38.1985L25.1463 36.9062C25.7123 36.3359 26.0213 35.5955 26.0213 34.8214V23.4968C26.0213 21.9637 24.8609 20.6788 23.3076 20.3454V20.342H23.3073ZM24.7366 34.8284C24.7366 35.3061 24.5439 35.7614 24.1986 36.1133L22.7533 37.5722C22.645 37.6795 22.5846 37.8242 22.5846 37.972V43.3563C22.5846 43.5747 22.7173 43.7784 22.926 43.8784L23.2753 44.0489C23.7329 44.2747 24.0179 44.7118 24.0179 45.1895V46.3745C24.0179 47.3261 23.179 48.1001 22.1473 48.1001C21.3203 48.1001 20.5816 47.5854 20.353 46.8522C20.337 46.7967 20.309 46.7449 20.2767 46.7006V23.4968C20.2767 22.3635 21.2763 21.4417 22.5046 21.4417C22.5086 21.4417 22.5166 21.4417 22.5206 21.4417V26.7558C22.5206 27.0818 22.8096 27.3484 23.163 27.3484C23.5163 27.3484 23.8053 27.0818 23.8053 26.7558V21.8306C24.3633 22.2045 24.7326 22.8119 24.7326 23.4933V34.8249L24.7366 34.8284ZM23.202 28.2101C23.5823 28.2101 23.8936 28.4698 23.8936 28.7869V28.9239C23.8936 29.2411 23.5823 29.5008 23.202 29.5008C22.8216 29.5008 22.5103 29.2411 22.5103 28.9239V28.7869C22.5106 28.4694 22.8216 28.2101 23.202 28.2101ZM23.202 30.2532C23.5823 30.2532 23.8936 30.5129 23.8936 30.8301V30.9671C23.8936 31.2842 23.5823 31.5439 23.202 31.5439C22.8216 31.5439 22.5103 31.2842 22.5103 30.9671V30.8301C22.5106 30.5125 22.8216 30.2532 23.202 30.2532ZM30.4602 42.7748C30.7799 42.644 31.1509 42.786 31.2889 43.0889C31.4269 43.3918 31.2769 43.7429 30.9572 43.8737C30.5389 44.0458 30.2665 44.4344 30.2665 44.8677C30.2665 45.2528 30.4835 45.6078 30.8349 45.8023C31.1349 45.9705 31.2375 46.3367 31.0639 46.6207C30.9455 46.8113 30.7322 46.9197 30.5152 46.9197C30.4085 46.9197 30.2982 46.8935 30.1995 46.8376C29.4576 46.4305 28.9999 45.6792 28.9999 44.8681C28.9999 43.9563 29.5722 43.1341 30.4562 42.7752H30.4602V42.7748ZM43.8917 42.081C45.535 42.081 46.872 43.3131 46.872 44.8276C46.872 45.1502 46.5857 45.4145 46.2354 45.4145C45.8854 45.4145 45.5987 45.1506 45.5987 44.8276C45.5987 43.9621 44.8347 43.2544 43.8917 43.2544C43.5417 43.2544 43.2551 42.9905 43.2551 42.6675C43.2551 42.345 43.5414 42.081 43.8917 42.081ZM43.9107 40.1776C43.4134 40.1776 42.9284 40.2405 42.4597 40.3701L40.5884 37.4082L40.1438 36.2715L42.7104 20.5283C42.7871 20.0618 42.4801 19.6436 41.9827 19.5286C41.4854 19.4136 41.0004 19.6544 40.8268 20.095L37.3345 29.0624L33.8462 20.095C33.6725 19.6544 33.1915 19.4136 32.6902 19.5286C32.1929 19.6436 31.8859 20.0618 31.9625 20.5283L34.7395 37.5414L32.2659 40.2478C31.9829 40.2034 31.6999 40.181 31.4252 40.181C28.6199 40.181 26.3403 42.2693 26.3403 44.8388C26.3403 47.4082 28.6199 49.4965 31.4252 49.4965C34.2302 49.4965 36.5101 47.4082 36.5101 44.8388C36.5101 43.8799 36.1828 42.9469 35.5845 42.1655L37.7388 39.6107L39.6911 42.247C39.1334 43.0098 38.8301 43.917 38.8301 44.8423C38.8301 47.4117 41.1098 49.5 43.9151 49.5C46.7204 49.5 49 47.4117 49 44.8423C49 42.2728 46.7204 40.1845 43.9151 40.1845L43.9107 40.1776ZM40.9521 23.3089L39.2221 33.9054L38.0258 30.8285L40.9521 23.3123V23.3089ZM34.2788 42.5545C34.8852 43.1877 35.2165 43.9984 35.2165 44.8353C35.2165 46.7496 33.5148 48.3081 31.4252 48.3081C29.3356 48.3081 27.6339 46.7492 27.6339 44.8353C27.6339 42.9211 29.3356 41.3622 31.4252 41.3622C31.7242 41.3622 32.0395 41.3992 32.3549 41.4733C32.5932 41.5289 32.8478 41.4548 33.0095 41.2808L35.0145 39.0852C35.1075 39.3148 35.3378 39.4815 35.6128 39.4815H36.2111L34.2548 41.8028C34.0645 42.0251 34.0768 42.3434 34.2788 42.5545ZM43.9147 48.3085C41.8251 48.3085 40.1234 46.7496 40.1234 44.8357C40.1234 44.0323 40.4308 43.251 40.9844 42.6328C41.1664 42.4291 41.1824 42.1405 41.0208 41.9221L38.5228 38.5527C38.4015 38.3899 38.2035 38.2934 37.9891 38.2934H36.1741L33.7288 23.3058L39.3958 37.8566C39.4078 37.8898 39.4241 37.9234 39.4444 37.9531L41.6191 41.3927C41.7847 41.652 42.1324 41.7592 42.4314 41.6408C42.9044 41.4556 43.4054 41.3629 43.9187 41.3629C46.0084 41.3629 47.71 42.9218 47.71 44.8361C47.71 46.7503 46.0084 48.3088 43.9187 48.3088H43.9147V48.3085Z" fill="#FF8200"/>
</svg>
