<svg width="68" height="69" viewBox="0 0 68 69" fill="none" xmlns="http://www.w3.org/2000/svg">
<rect y="0.652344" width="68" height="68" rx="34" fill="#E8E7FF"/>
<path fill-rule="evenodd" clip-rule="evenodd" d="M47.7273 35.626C47.8573 35.7582 48.0217 35.8261 48.19 35.8261C48.3583 35.8261 48.5267 35.7578 48.6527 35.6256C48.9087 35.3576 48.9087 34.9258 48.6527 34.6578L34.5047 19.8534C34.2487 19.5853 33.8357 19.5853 33.5797 19.8534L27.8211 25.9581C27.5651 26.2258 27.5651 26.6579 27.8211 26.926C28.0771 27.194 28.4901 27.194 28.7461 26.926L34.042 21.3055L47.7273 35.626ZM32.1827 32.8341C32.0517 32.7291 31.697 32.4019 31.697 32.4019H31.6893C31.2343 31.958 30.8917 31.5057 30.6603 31.0456C30.348 30.4321 30.2363 29.798 30.3173 29.1723C30.402 28.5386 30.645 28.0261 31.0457 27.6424C31.4043 27.2994 31.855 27.0975 32.356 27.0531C32.8183 27.0127 33.2923 27.1177 33.6893 27.3439C33.759 27.3802 33.8243 27.4246 33.886 27.4691C33.9517 27.4246 34.017 27.3843 34.0827 27.3439C34.4797 27.1137 34.9573 27.0127 35.416 27.0531C35.913 27.0975 36.3677 27.3031 36.7223 27.6424C37.123 28.0257 37.3697 28.5386 37.4507 29.1723C37.5393 29.8468 37.4007 30.525 37.0383 31.1829C36.7763 31.6632 36.391 32.1313 35.8977 32.5756C35.0886 33.3046 34.2567 33.7305 34.2189 33.7498L34.2177 33.7505C34.1137 33.803 34.0057 33.8272 33.89 33.8272C33.7743 33.8272 33.6587 33.799 33.5547 33.7465C33.5507 33.7465 32.911 33.4153 32.1827 32.8341ZM31.8857 28.5948C31.7007 28.7685 31.589 29.0145 31.5467 29.3456L31.5503 29.3497C31.504 29.7051 31.5737 30.0763 31.7623 30.4479C31.932 30.779 32.1903 31.1179 32.5293 31.4491C32.5293 31.4491 32.826 31.7197 32.934 31.8086C33.3157 32.1111 33.678 32.3413 33.8937 32.4706C34.1557 32.3171 34.6297 32.0186 35.092 31.5986C35.4813 31.2512 35.778 30.8962 35.9707 30.5408C36.194 30.1328 36.2827 29.7334 36.2327 29.3497C36.1867 29.0189 36.0787 28.7765 35.8937 28.5988C35.7433 28.4534 35.543 28.3646 35.3157 28.3444C35.092 28.3282 34.8687 28.3727 34.6797 28.4817C34.564 28.5463 34.4677 28.6311 34.406 28.7321C34.1787 29.0956 33.6043 29.0956 33.377 28.7321C33.3113 28.6311 33.219 28.5423 33.1033 28.4777C32.9187 28.3686 32.691 28.3202 32.4677 28.3403C32.2403 28.3605 32.0397 28.4494 31.8857 28.5948Z" fill="#1D0DFF"/>
<path d="M48.3487 48.2608H45.6843V35.6443C45.6843 35.2676 45.4013 34.9559 45.0527 34.9559C44.7107 34.9559 44.421 35.2676 44.421 35.6443L44.4213 48.2608H23.658V35.6443C23.658 35.2676 23.375 34.9559 23.0263 34.9559C22.6843 34.9559 22.3947 35.2676 22.3947 35.6443V48.2608H19.658C19.296 48.2608 19 48.5725 19 48.9566C19 49.3406 19.296 49.6523 19.658 49.6523H48.3487C48.7103 49.6523 49 49.3406 49 48.9566C49 48.5725 48.7103 48.2608 48.3487 48.2608Z" fill="#1D0DFF"/>
<path d="M20.3772 35.7911C20.1029 36.0847 19.6502 36.0967 19.3633 35.818C19.0764 35.5393 19.0663 35.0779 19.3407 34.7846L23.4943 30.3415L24.5344 29.2523C24.8087 28.9587 25.2614 28.9467 25.5483 29.2254C25.8351 29.5042 25.8452 29.9656 25.5709 30.2588L24.5344 31.3441L20.3772 35.7911Z" fill="#1D0DFF"/>
<path d="M27.3069 28.0523C27.3069 28.4666 27.0021 28.8023 26.626 28.8023C26.25 28.8023 25.9451 28.4666 25.9451 28.0523C25.9451 27.6381 26.25 27.3023 26.626 27.3023C27.0021 27.3023 27.3069 27.6381 27.3069 28.0523Z" fill="#1D0DFF"/>
<path d="M33.0252 43.4211C33.2222 43.7465 34.0099 44.8312 34.0099 44.8312C34.0099 44.8312 34.7977 43.7465 34.9947 43.4211C35.1916 43.0957 34.9947 42.6618 34.6993 42.6618H33.3206C33.0252 42.6618 32.8283 43.0957 33.0252 43.4211Z" fill="#1D0DFF"/>
<path fill-rule="evenodd" clip-rule="evenodd" d="M31.5638 36.5161C32.2063 36.1181 32.9973 35.8741 33.9448 35.8741H34.0249C34.964 35.8741 35.7495 36.1138 36.3889 36.5056C36.84 36.0809 37.3834 35.9434 37.9242 36.0381C38.5711 36.1513 39.1734 36.5852 39.6269 37.1262C40.0833 37.6707 40.4371 38.3801 40.5415 39.1248C40.6482 39.8862 40.4914 40.6949 39.9101 41.3353C39.705 41.5611 39.3726 41.5611 39.1676 41.3352C38.9626 41.1094 38.9626 40.7432 39.1676 40.5174C39.4744 40.1796 39.5682 39.7609 39.5038 39.3012C39.437 38.8248 39.198 38.3194 38.8555 37.9108C38.5101 37.4987 38.1076 37.2412 37.7594 37.1803C37.5941 37.1514 37.4328 37.1636 37.2789 37.2386C37.9667 37.983 38.3716 38.9377 38.5147 39.8566C38.7974 41.672 38.4936 43.1821 38.0484 44.5308C37.87 45.0712 37.6583 45.5718 37.2755 45.9147C36.8766 46.272 36.3781 46.3857 35.7825 46.3857C35.0945 46.3857 34.5456 46.0759 34.1832 45.7886C34.1207 45.739 34.0629 45.6894 34.0099 45.6412C33.957 45.6894 33.8992 45.739 33.8366 45.7886C33.4743 46.0759 32.9253 46.3857 32.2374 46.3857C31.6418 46.3857 31.1433 46.272 30.7444 45.9147C30.3616 45.5718 30.1499 45.0712 29.9715 44.5308C29.5319 43.1991 29.1705 41.6836 29.455 39.8566C29.5976 38.9413 29.9999 37.9903 30.6828 37.2473C30.526 37.1642 30.3636 37.1508 30.1998 37.18C29.8652 37.2398 29.477 37.4932 29.1445 37.9036C28.8153 38.3099 28.5872 38.8139 28.5281 39.2912C28.4709 39.7527 28.5697 40.1762 28.8795 40.5174C29.0845 40.7432 29.0846 41.1094 28.8795 41.3352C28.6745 41.5611 28.3421 41.5611 28.1371 41.3353C27.5588 40.6983 27.3936 39.8944 27.4877 39.1348C27.5798 38.391 27.9181 37.6802 28.3612 37.1334C28.801 36.5906 29.3912 36.1527 30.0317 36.0384C30.5726 35.9418 31.1143 36.0848 31.5638 36.5161ZM33.3046 44.7822C33.2642 44.7257 33.2216 44.6659 33.178 44.6046C32.9611 44.2993 32.7005 43.9271 32.5884 43.7419C32.3797 43.3971 32.3811 42.9933 32.5103 42.6801C32.6361 42.3754 32.9207 42.0835 33.3206 42.0835H34.6993C35.0992 42.0835 35.3838 42.3754 35.5095 42.6801C35.6388 42.9933 35.6402 43.3971 35.4315 43.7419C35.3194 43.9271 35.0588 44.2993 34.8419 44.6046C34.7983 44.6659 34.7557 44.7257 34.7153 44.7822C34.741 44.8046 34.7681 44.8273 34.7968 44.85C35.0499 45.0507 35.3872 45.2291 35.7825 45.2291C36.2701 45.2291 36.4836 45.1333 36.613 45.0174C36.7586 44.887 36.8916 44.6505 37.0616 44.1356C37.4697 42.8995 37.7212 41.6022 37.4798 40.0521C37.35 39.2184 36.9442 38.3463 36.2127 37.7546C36.1935 37.7426 36.1748 37.7291 36.1567 37.7142C36.1465 37.7057 36.1365 37.6968 36.127 37.6877C35.5945 37.2867 34.8996 37.0306 34.0249 37.0306H33.9448C31.7797 37.0306 30.7161 38.5997 30.4899 40.0521C30.2503 41.5907 30.5446 42.8825 30.9583 44.1356C31.1283 44.6505 31.2613 44.887 31.4068 45.0174C31.5362 45.1333 31.7498 45.2291 32.2374 45.2291C32.6327 45.2291 32.97 45.0507 33.2231 44.85C33.2517 44.8273 33.2789 44.8046 33.3046 44.7822ZM34.0099 43.8989C34.0116 43.8965 34.0133 43.8941 34.015 43.8918C34.1841 43.6537 34.3563 43.4077 34.4679 43.2401H33.552C33.6636 43.4077 33.8358 43.6537 34.0049 43.8918C34.0066 43.8941 34.0083 43.8965 34.0099 43.8989Z" fill="#1D0DFF"/>
</svg>
