<svg width="68" height="69" viewBox="0 0 68 69" fill="none" xmlns="http://www.w3.org/2000/svg">
<rect y="0.285156" width="68" height="68" rx="34" fill="#E6F0F5"/>
<path fill-rule="evenodd" clip-rule="evenodd" d="M48.3487 47.8936H47.0263V45.6253C47.0263 45.2486 46.7367 44.9368 46.375 44.9368H45.6843V35.2771C45.6843 34.9004 45.4013 34.5887 45.0527 34.5887C44.7107 34.5887 44.421 34.9004 44.421 35.2771V40.1542H39.4343C39.2237 37.1904 36.8683 34.8498 34 34.8498C31.138 34.8498 28.7763 37.1904 28.5657 40.1542H23.658V35.2771C23.658 34.9004 23.375 34.5887 23.0263 34.5887C22.6843 34.5887 22.3947 34.9004 22.3947 35.2771V44.9368H21.7107C21.3487 44.9368 21.0527 45.2486 21.0527 45.6253V47.8936H19.658C19.296 47.8936 19 48.2053 19 48.5894C19 48.9734 19.296 49.2852 19.658 49.2852H48.3487C48.7103 49.2852 49 48.9734 49 48.5894C49 48.2053 48.7103 47.8936 48.3487 47.8936ZM23.658 41.5454H28.5527V42.9439C28.5527 43.3206 28.8487 43.6323 29.2107 43.6323C29.566 43.6323 29.862 43.3206 29.862 42.9439V40.5889C29.862 38.1829 31.7173 36.2263 34.0003 36.2263C36.2833 36.2263 38.145 38.1829 38.145 40.5889V42.9439C38.145 43.3206 38.441 43.6323 38.7963 43.6323C39.158 43.6323 39.4477 43.3206 39.4477 42.9439V41.5454H44.4213V44.9368H23.658V41.5454ZM22.362 47.8936V46.3067H45.724V47.8936H22.362ZM31.697 32.0347C31.697 32.0347 32.0517 32.3619 32.1827 32.4669C32.911 33.0481 33.5507 33.3793 33.5547 33.3793C33.6587 33.4318 33.7743 33.46 33.89 33.46C34.0057 33.46 34.1137 33.4358 34.2177 33.3833C34.2253 33.3793 35.0733 32.9512 35.8977 32.2084C36.391 31.7641 36.7763 31.296 37.0383 30.8157C37.4007 30.1578 37.5393 29.4796 37.4507 28.8052C37.3697 28.1714 37.123 27.6585 36.7223 27.2752C36.3677 26.9359 35.913 26.7303 35.416 26.6859C34.9573 26.6455 34.4797 26.7465 34.0827 26.9767C34.017 27.0171 33.9517 27.0575 33.886 27.1019C33.8243 27.0575 33.759 27.013 33.6893 26.9767C33.2923 26.7505 32.8183 26.6455 32.356 26.6859C31.855 26.7303 31.4043 26.9323 31.0457 27.2752C30.645 27.6589 30.402 28.1714 30.3173 28.8052C30.2363 29.4308 30.348 30.0649 30.6603 30.6784C30.8917 31.1385 31.2343 31.5908 31.6893 32.0347H31.697ZM31.5467 28.9785C31.589 28.6473 31.7007 28.4013 31.8857 28.2276C32.0397 28.0822 32.2403 27.9934 32.4677 27.9732C32.691 27.953 32.9187 28.0014 33.1033 28.1105C33.219 28.1751 33.3113 28.264 33.377 28.3649C33.6043 28.7284 34.1787 28.7284 34.406 28.3649C34.4677 28.264 34.564 28.1791 34.6797 28.1145C34.8687 28.0055 35.092 27.961 35.3157 27.9772C35.543 27.9974 35.7433 28.0862 35.8937 28.2316C36.0787 28.4094 36.1867 28.6517 36.2327 28.9825C36.2827 29.3662 36.194 29.7657 35.9707 30.1736C35.778 30.529 35.4813 30.884 35.092 31.2314C34.6297 31.6514 34.1557 31.9499 33.8937 32.1034C33.678 31.9741 33.3157 31.7439 32.934 31.4414C32.826 31.3525 32.5293 31.0819 32.5293 31.0819C32.1903 30.7508 31.932 30.4119 31.7623 30.0807C31.5737 29.7091 31.504 29.3379 31.5503 28.9825L31.5467 28.9785Z" fill="#2176A4"/>
<path d="M20.3567 35.2588C20.1007 35.5268 19.6877 35.5268 19.4317 35.2588C19.1757 34.9908 19.1757 34.5586 19.4317 34.2909L21.9493 31.6564C21.9493 31.6564 22.33 31.2852 22.7664 31.7352C23.2028 32.1852 22.7386 32.6352 22.7386 32.6352L20.3567 35.2588Z" fill="#2176A4"/>
<path d="M48.19 35.4589C48.0217 35.4589 47.8573 35.391 47.7273 35.2588L34.042 20.9383L25.5875 29.7852C25.5875 29.7852 25.0815 30.2352 24.6729 29.7852C24.2644 29.3352 24.6741 28.8052 24.6741 28.8052L33.5797 19.4862C33.8357 19.2181 34.2487 19.2181 34.5047 19.4862L48.6527 34.2906C48.9087 34.5586 48.9087 34.9904 48.6527 35.2584C48.5267 35.3906 48.3583 35.4589 48.19 35.4589Z" fill="#2176A4"/>
<path d="M24.1282 30.6852C24.1282 31.0165 23.8843 31.2852 23.5835 31.2852C23.2826 31.2852 23.0388 31.0165 23.0388 30.6852C23.0388 30.3538 23.2826 30.0852 23.5835 30.0852C23.8843 30.0852 24.1282 30.3538 24.1282 30.6852Z" fill="#2176A4"/>
</svg>
