<svg width="68" height="69" viewBox="0 0 68 69" fill="none" xmlns="http://www.w3.org/2000/svg">
<rect y="0.550781" width="68" height="68" rx="34" fill="#F0F3F8"/>
<path d="M39.2531 29.9149C39.0974 29.5945 38.8251 29.5012 38.5034 29.6269C38.3644 29.6821 38.2671 29.6764 38.1314 29.6236C37.8278 29.5045 37.5598 29.5908 37.4055 29.8821C37.2385 30.1959 37.3495 30.4634 37.6161 30.6715C37.8235 30.8334 38.0621 30.912 38.3254 30.9043C38.5898 30.9086 38.8274 30.829 39.0324 30.6638C39.2777 30.4668 39.4021 30.2216 39.2531 29.9149ZM27.3749 36.7771C26.7249 36.7761 26.4379 36.948 26.4236 37.346C26.4089 37.7273 27.0052 38.3839 27.3616 38.3805C27.6889 38.3782 28.2825 37.7417 28.2928 37.3832C28.3048 36.9751 28.0045 36.7771 27.3749 36.7771ZM19.6182 41.6683C19.2732 41.7044 19.0412 41.883 19.0256 42.2349C19.0109 42.5834 19.2139 42.8015 19.5645 42.841C19.8895 42.8771 20.1942 42.5924 20.1832 42.264C20.1708 41.9078 19.9545 41.7269 19.6182 41.6683ZM27.1946 21.8169C26.8002 20.9827 26.1086 20.4787 25.1843 20.5472C24.383 20.6058 23.5964 20.8667 22.9411 20.5111C21.8788 20.5583 21.1861 20.979 20.7942 21.8189C20.3942 22.6778 20.4948 23.5236 21.1235 24.2263C21.8058 24.9899 22.5487 25.6993 23.2841 26.4121C23.694 26.8091 24.2657 26.8271 24.6723 26.4378C25.4333 25.7094 26.1973 24.9772 26.8956 24.1879C27.5072 23.4955 27.5899 22.6534 27.1946 21.8169ZM25.8509 23.6113C25.3143 24.1611 24.7663 24.6986 24.2273 25.2471C24.093 25.3833 24.0034 25.5023 23.805 25.2933C23.2347 24.6929 22.6331 24.1217 22.0581 23.5256C21.7218 23.1781 21.6425 22.7567 21.8518 22.3146C22.0411 21.9132 22.3741 21.7038 22.8234 21.6995C23.0934 21.6938 23.3287 21.7828 23.526 21.9614C23.833 22.239 24.1224 22.2336 24.4517 21.9771C24.9806 21.5667 25.597 21.6172 25.9836 22.0704C26.3709 22.5263 26.3259 23.1243 25.8509 23.6113ZM39.2531 29.9149C39.0974 29.5945 38.8251 29.5012 38.5034 29.6269C38.3644 29.6821 38.2671 29.6764 38.1314 29.6236C37.8278 29.5045 37.5598 29.5908 37.4055 29.8821C37.2385 30.1959 37.3495 30.4634 37.6161 30.6715C37.8235 30.8334 38.0621 30.912 38.3254 30.9043C38.5898 30.9086 38.8274 30.829 39.0324 30.6638C39.2777 30.4668 39.4021 30.2216 39.2531 29.9149ZM27.3749 36.7771C26.7249 36.7761 26.4379 36.948 26.4236 37.346C26.4089 37.7273 27.0052 38.3839 27.3616 38.3805C27.6889 38.3782 28.2825 37.7417 28.2928 37.3832C28.3048 36.9751 28.0045 36.7771 27.3749 36.7771ZM48.9583 45.1598C48.9417 45.1565 48.928 45.1745 48.918 45.2116L48.9573 45.1959H48.9597L49 45.1983V44.7451C48.9257 44.8775 48.955 45.0203 48.9583 45.1598ZM48.955 38.5672C48.9437 38.5648 48.9313 38.5628 48.9203 38.5628C48.9283 38.6043 48.9407 38.6224 48.9597 38.618C48.962 38.7575 48.9193 38.9026 49 39.0351V38.5819C48.985 38.5752 48.9707 38.5705 48.955 38.5672ZM48.955 38.5672C48.9437 38.5648 48.9313 38.5628 48.9203 38.5628C48.9283 38.6043 48.9407 38.6224 48.9597 38.618C48.971 38.6157 48.9843 38.6033 49 38.5819C48.985 38.5752 48.9707 38.5705 48.955 38.5672ZM48.9583 45.1598C48.9417 45.1565 48.928 45.1745 48.918 45.2116L48.9573 45.1959H48.9597L49 45.1983C48.984 45.1742 48.9693 45.1608 48.9583 45.1598ZM27.1946 21.8169C26.8002 20.9827 26.1086 20.4787 25.1843 20.5472C24.383 20.6058 23.5964 20.8667 22.9411 20.5111C21.8788 20.5583 21.1861 20.979 20.7942 21.8189C20.3942 22.6778 20.4948 23.5236 21.1235 24.2263C21.8058 24.9899 22.5487 25.6993 23.2841 26.4121C23.694 26.8091 24.2657 26.8271 24.6723 26.4378C25.4333 25.7094 26.1973 24.9772 26.8956 24.1879C27.5072 23.4955 27.5899 22.6534 27.1946 21.8169ZM25.8509 23.6113C25.3143 24.1611 24.7663 24.6986 24.2273 25.2471C24.093 25.3833 24.0034 25.5023 23.805 25.2933C23.2347 24.6929 22.6331 24.1217 22.0581 23.5256C21.7218 23.1781 21.6425 22.7567 21.8518 22.3146C22.0411 21.9132 22.3741 21.7038 22.8234 21.6995C23.0934 21.6938 23.3287 21.7828 23.526 21.9614C23.833 22.239 24.1224 22.2336 24.4517 21.9771C24.9806 21.5667 25.597 21.6172 25.9836 22.0704C26.3709 22.5263 26.3259 23.1243 25.8509 23.6113ZM19.6182 41.6683C19.2732 41.7044 19.0412 41.883 19.0256 42.2349C19.0109 42.5834 19.2139 42.8015 19.5645 42.841C19.8895 42.8771 20.1942 42.5924 20.1832 42.264C20.1708 41.9078 19.9545 41.7269 19.6182 41.6683ZM27.3749 36.7771C26.7249 36.7761 26.4379 36.948 26.4236 37.346C26.4089 37.7273 27.0052 38.3839 27.3616 38.3805C27.6889 38.3782 28.2825 37.7417 28.2928 37.3832C28.3048 36.9751 28.0045 36.7771 27.3749 36.7771ZM39.2531 29.9149C39.0974 29.5945 38.8251 29.5012 38.5034 29.6269C38.3644 29.6821 38.2671 29.6764 38.1314 29.6236C37.8278 29.5045 37.5598 29.5908 37.4055 29.8821C37.2385 30.1959 37.3495 30.4634 37.6161 30.6715C37.8235 30.8334 38.0621 30.912 38.3254 30.9043C38.5898 30.9086 38.8274 30.829 39.0324 30.6638C39.2777 30.4668 39.4021 30.2216 39.2531 29.9149ZM27.3749 36.7771C26.7249 36.7761 26.4379 36.948 26.4236 37.346C26.4089 37.7273 27.0052 38.3839 27.3616 38.3805C27.6889 38.3782 28.2825 37.7417 28.2928 37.3832C28.3048 36.9751 28.0045 36.7771 27.3749 36.7771ZM39.2531 29.9149C39.0974 29.5945 38.8251 29.5012 38.5034 29.6269C38.3644 29.6821 38.2671 29.6764 38.1314 29.6236C37.8278 29.5045 37.5598 29.5908 37.4055 29.8821C37.2385 30.1959 37.3495 30.4634 37.6161 30.6715C37.8235 30.8334 38.0621 30.912 38.3254 30.9043C38.5898 30.9086 38.8274 30.829 39.0324 30.6638C39.2777 30.4668 39.4021 30.2216 39.2531 29.9149ZM48.9997 39.0351C48.8687 38.8956 48.891 38.7304 48.92 38.5628C48.8673 37.7283 48.5537 36.9818 48.1187 36.2858C47.9877 36.0744 47.963 35.9226 48.0727 35.6797C48.9097 33.8322 48.7797 32.0444 47.6661 30.3467C47.5261 30.133 47.5081 29.9611 47.5687 29.7273C48.083 27.7506 47.3994 25.7796 45.7735 24.5371C45.6131 24.4157 45.4921 24.2829 45.4058 24.0976C44.2149 21.547 42.2403 20.0221 39.4681 19.5522C39.4054 19.5422 36.8795 19.587 36.7328 19.6208C34.2126 20.2068 32.3907 21.6637 31.2767 24.0059C31.1704 24.2274 31.0371 24.4029 30.8431 24.5615C29.1891 25.9064 28.5952 27.6335 29.0668 29.7136C29.1261 29.9755 29.1071 30.1587 28.9535 30.3735C28.5748 30.9066 28.3168 31.5023 28.1835 32.1421C28.1319 32.3873 28.0289 32.4759 27.7945 32.4401C27.7509 32.4334 27.7039 32.4358 27.6589 32.4391C26.8096 32.5033 25.9993 32.4706 25.3416 31.7903C25.1533 31.5969 24.853 31.4969 24.5873 31.3979C23.9857 31.1732 23.3784 31.5284 23.2571 32.1615C23.1517 32.7147 23.1461 33.2726 23.2514 33.8258C23.2961 34.0619 23.2557 34.2543 23.1271 34.4623C22.8671 34.8874 22.6731 35.3449 22.6194 35.85C22.5018 35.9567 22.6877 36.1737 22.5341 36.2661C22.5351 36.2684 22.5341 36.2717 22.5331 36.2741V36.2674C22.5141 36.2788 22.4904 36.2888 22.4591 36.2955C22.1744 35.3995 21.3925 34.862 20.5542 34.9867C19.6342 35.1239 19.0246 35.8446 19.0169 36.8173C19.0102 37.6932 19.0136 39.2146 19.0169 40.0905C19.0179 40.5672 19.2399 40.8508 19.5995 40.8508C19.9592 40.8508 20.1845 40.5675 20.1868 40.0939C20.1902 39.2474 20.1858 37.7561 20.1878 36.9106C20.1902 36.435 20.4118 36.1503 20.7705 36.1493C21.1301 36.1493 21.3578 36.434 21.3578 36.9082C21.3601 39.7318 21.3588 42.555 21.3588 45.3795C21.3588 46.8853 21.4138 47.0886 22.1588 48.3141C21.1681 48.5031 20.2368 47.7385 20.1932 46.6816C20.1718 46.1384 20.1922 44.8281 20.1865 44.2849C20.1809 43.8384 19.9645 43.5642 19.6205 43.5508C19.2609 43.5361 19.0109 43.825 19.0189 44.2906C19.0302 44.9699 18.9439 46.4197 19.0672 47.091C19.3372 48.565 20.4905 49.5376 21.9831 49.5456C23.999 49.5557 26.0159 49.548 28.0319 49.548C33.3286 49.548 38.6258 49.5547 43.9225 49.5456C46.2971 49.5413 48.294 47.9546 48.8543 45.6585C48.8903 45.5133 48.897 45.3605 48.917 45.212C48.889 45.0467 48.8677 44.8825 48.9987 44.7454V39.0351H48.9997ZM30.3444 29.8597C29.7115 28.0158 30.2234 26.4405 31.8214 25.3037C32.0017 25.1756 32.1174 25.018 32.2024 24.8167C33.3026 22.2149 35.6415 20.581 38.3498 20.6486C41.2297 20.7205 43.2589 22.1453 44.4245 24.7899C44.5412 25.0541 44.7158 25.2284 44.9445 25.3869C46.3251 26.3482 46.9134 28.0349 46.3744 29.6136C46.2074 30.1005 46.2611 30.4343 46.5738 30.8461C47.5331 32.1087 47.6741 33.5054 47.0937 35.0369C46.1548 34.2375 45.1228 33.7248 43.9415 33.6248C43.0742 33.5515 42.1979 33.5977 41.326 33.5719C41.1533 33.5676 40.8577 33.7057 40.8283 33.4449C40.7957 33.1582 40.649 32.796 40.9583 32.5599C42.3636 31.4896 42.9002 30.0447 42.8206 28.3175C42.8003 27.8657 42.8206 27.4125 42.8173 26.9593C42.8129 26.2756 42.6479 26.1147 41.9523 26.1104C41.6206 26.1094 41.29 26.1114 40.9593 26.1094C40.7003 26.1084 40.4507 26.0679 40.2154 25.9542C39.693 25.7033 39.646 25.5866 39.7974 25.0321C39.8634 24.7859 39.9084 24.5307 39.9264 24.2765C39.9544 23.8705 39.7347 23.5929 39.3974 23.5624C39.0611 23.531 38.8011 23.7658 38.7688 24.1775C38.7228 24.7441 38.5278 25.2321 38.1008 25.6144C37.7118 25.9629 37.2535 26.1147 36.7348 26.1114C36.0279 26.1057 35.3206 26.1057 34.6136 26.1114C34.0163 26.1171 33.818 26.3071 33.8293 26.8984C33.846 27.8024 33.753 28.7098 33.89 29.6106C34.0669 30.7845 34.6476 31.7257 35.5652 32.4642C35.7802 32.6385 35.9239 33.2355 35.8162 33.4773C35.7455 33.6368 35.6112 33.574 35.5046 33.575C34.9172 33.5816 34.3303 33.5873 33.7443 33.576C32.988 33.5626 32.2437 33.6322 31.4617 33.8987C31.512 33.3726 31.538 32.9238 31.4941 32.4719C31.3967 31.4702 30.7714 31.0932 29.8648 31.5036C29.8021 31.5317 29.7371 31.5588 29.6148 31.6117C29.7648 31.208 29.9758 30.9223 30.2074 30.6537C30.4184 30.4106 30.4488 30.1644 30.3444 29.8597ZM39.6261 34.3472C39.5881 35.06 39.0387 35.5908 38.3431 35.6021C37.6505 35.6122 37.0692 35.1018 37.0095 34.3934C36.9792 34.0211 37.0052 33.6445 37.0052 33.2228C37.8355 33.4499 38.6088 33.486 39.3784 33.2813C39.5991 33.2228 39.6407 33.297 39.635 33.4893C39.6261 33.775 39.6417 34.0626 39.6261 34.3472ZM38.1738 32.2354C36.4605 32.1726 35.0576 30.7501 35.0049 29.0152C34.9902 28.5316 35.0092 28.0483 34.9949 27.566C34.9882 27.3479 35.0599 27.2703 35.2772 27.2813C35.5776 27.2961 35.8779 27.2847 36.3282 27.2847C37.1215 27.3476 38.0124 27.2171 38.7664 26.5853C38.8841 26.4877 38.9647 26.4977 39.0747 26.5944C39.699 27.1419 40.4417 27.3352 41.252 27.2803C41.569 27.2579 41.6733 27.3613 41.6543 27.6817C41.6206 28.2078 41.6633 28.7396 41.6116 29.2637C41.4356 31.0166 39.9354 32.302 38.1738 32.2354ZM24.2473 34.8948C24.4817 34.5529 24.5667 34.2506 24.4513 33.8469C24.3403 33.4622 24.3057 33.0552 24.3907 32.6057C24.793 32.7766 25.1133 33.0171 25.3936 33.306C25.6076 33.5275 25.8419 33.6265 26.1523 33.6198C26.9489 33.6041 27.7469 33.6051 28.5435 33.6198C28.8505 33.6255 29.0915 33.5398 29.3055 33.3151C29.5845 33.0238 29.9051 32.7833 30.3061 32.611C30.4034 33.0947 30.3384 33.5388 30.2331 33.9773C30.1601 34.2763 30.2074 34.5248 30.3911 34.7824C31.1284 35.8192 31.2427 36.9347 30.6568 38.0668C30.0718 39.197 29.0968 39.7478 27.8305 39.7535C27.2759 39.7559 26.7179 39.804 26.1666 39.6849C24.0044 39.2204 22.9934 36.7253 24.2473 34.8948ZM22.6157 37.4213C22.6604 37.6113 22.6817 37.8116 22.7571 37.9879C22.8634 38.2387 22.7684 38.3769 22.5251 38.5197V37.5885C22.4891 37.4969 22.4568 37.4079 22.6157 37.4213ZM26.0716 48.372C25.9179 48.2405 25.4833 48.6396 25.4923 48.075C25.5003 47.6218 25.7546 47.3047 26.1356 47.3081C26.5156 47.3104 26.7809 47.6318 26.7742 48.0807C26.7699 48.372 26.7699 48.372 26.0716 48.372ZM28.5492 48.372C28.3868 48.2372 27.9262 48.6543 27.9429 48.0583C27.9552 47.6074 28.2209 47.2947 28.6028 47.3084C28.9692 47.3218 29.2191 47.6221 29.2225 48.0529C29.2248 48.372 29.2248 48.372 28.5492 48.372ZM32.1587 45.4454C32.0814 46.1739 31.6207 46.8294 31.521 47.6044C31.4751 47.9629 30.9024 48.169 30.3938 48.2961V47.7091C30.3938 46.3946 30.3981 45.0812 30.3928 43.7681C30.3904 43.244 30.0544 42.9483 29.6375 43.0854C29.3148 43.1921 29.2185 43.4396 29.2205 43.7567C29.2248 44.5708 29.2215 45.3839 29.2215 46.2137C28.8438 46.1642 28.5032 46.0843 28.1582 46.1889C27.8949 46.2689 27.9475 46.0652 27.9475 45.9271C27.9442 45.0511 27.9555 44.1751 27.9419 43.2992C27.9329 42.7607 27.4689 42.4704 27.0556 42.7246C26.8226 42.8674 26.7699 43.0911 26.7719 43.3487C26.7762 44.1638 26.7639 44.9792 26.7786 45.7943C26.7842 46.098 26.7719 46.306 26.3786 46.1618C26.2586 46.118 26.0963 46.1047 25.9796 46.1471C25.491 46.3271 25.4126 46.1157 25.4383 45.6759C25.473 45.0732 25.4483 44.4681 25.4473 43.8644C25.445 43.3336 25.249 43.057 24.8757 43.0503C24.489 43.0436 24.276 43.336 24.276 43.8882C24.2737 45.233 24.267 46.5766 24.2817 47.9205C24.285 48.2476 24.2077 48.3208 23.9107 48.17C23.0781 47.7462 22.5661 47.0836 22.5437 46.1414C22.5101 44.7223 22.5201 43.3022 22.5471 41.8834C22.5617 41.0526 22.8441 40.289 23.2801 39.5816C23.402 39.3836 23.4774 39.3364 23.6644 39.5388C24.5777 40.5281 25.7216 40.9589 27.0586 40.9375C27.8865 40.9251 28.7125 40.9522 29.5015 40.6248C30.1828 40.3415 30.7454 39.903 31.2507 39.3361C31.875 40.1739 32.163 41.0947 32.182 42.0964C32.2024 43.2132 32.275 44.34 32.1587 45.4454ZM34.6126 47.6616C34.6126 48.4466 34.6126 48.4466 33.817 48.3676C33.2656 48.3114 32.842 47.891 32.7883 47.3422C32.7357 46.8214 33.0663 46.3301 33.5793 46.1662C34.3739 45.912 34.6126 46.0796 34.6126 46.8937V47.6616ZM47.822 44.5367C47.7984 46.6338 46.1108 48.3452 44.0255 48.3643C41.3933 48.388 38.7601 48.3666 36.1279 48.3777C35.8479 48.3787 35.7649 48.3034 35.7772 48.0245C35.7995 47.5117 35.8062 46.9967 35.7762 46.4853C35.7549 46.1368 35.9062 46.103 36.1965 46.104C38.5574 46.114 40.9197 46.1097 43.2819 46.1097C43.9452 46.1097 44.2165 45.9455 44.2255 45.5384C44.2345 45.1156 43.9455 44.9334 43.2642 44.9334H38.5244V44.9648C36.8705 44.9648 35.2166 44.9548 33.5626 44.9738C33.2746 44.9772 33.3666 44.8096 33.3653 44.6905C33.3573 43.9664 33.3496 43.2413 33.3643 42.5172C33.3923 41.0004 32.998 39.6231 32.043 38.43C31.9254 38.2829 31.905 38.1568 31.9657 37.9782C32.266 37.0922 32.2704 36.1982 31.9657 35.3132C31.8804 35.0657 31.932 34.9713 32.1797 34.9061C32.7253 34.7633 33.279 34.7509 33.836 34.7533C34.4233 34.7556 35.0102 34.76 35.5962 34.7499C35.7889 34.7466 35.8729 34.8038 35.9435 34.9994C36.3582 36.1349 37.2132 36.7694 38.2968 36.7781C39.4041 36.7872 40.2577 36.1574 40.698 35.0014C40.7473 34.87 40.773 34.7452 40.958 34.7519C42.0383 34.7958 43.1276 34.6382 44.1985 34.8566C46.2851 35.2794 47.7967 37.1066 47.8214 39.2384C47.842 41.0037 47.842 42.7704 47.822 44.5367ZM38.5034 29.6269C38.3644 29.6821 38.2671 29.6764 38.1314 29.6236C37.8278 29.5045 37.5598 29.5908 37.4055 29.8821C37.2385 30.1959 37.3495 30.4634 37.6161 30.6715C37.8235 30.8334 38.0621 30.912 38.3254 30.9043C38.5898 30.9086 38.8274 30.829 39.0324 30.6638C39.2777 30.4671 39.4021 30.222 39.2531 29.9149C39.0971 29.5942 38.8247 29.5008 38.5034 29.6269ZM27.3616 38.3805C27.6889 38.3782 28.2825 37.7417 28.2928 37.3832C28.3052 36.9751 28.0049 36.7771 27.3752 36.7771C26.7252 36.7761 26.4383 36.948 26.4239 37.346C26.4089 37.7273 27.0052 38.3839 27.3616 38.3805ZM39.2531 29.9149C39.0974 29.5945 38.8251 29.5012 38.5034 29.6269C38.3644 29.6821 38.2671 29.6764 38.1314 29.6236C37.8278 29.5045 37.5598 29.5908 37.4055 29.8821C37.2385 30.1959 37.3495 30.4634 37.6161 30.6715C37.8235 30.8334 38.0621 30.912 38.3254 30.9043C38.5898 30.9086 38.8274 30.829 39.0324 30.6638C39.2777 30.4668 39.4021 30.2216 39.2531 29.9149ZM27.3749 36.7771C26.7249 36.7761 26.4379 36.948 26.4236 37.346C26.4089 37.7273 27.0052 38.3839 27.3616 38.3805C27.6889 38.3782 28.2825 37.7417 28.2928 37.3832C28.3048 36.9751 28.0045 36.7771 27.3749 36.7771ZM48.9583 45.1598C48.9417 45.1565 48.928 45.1745 48.918 45.2116L48.9573 45.1959H48.9597C48.9593 45.1845 48.9593 45.1722 48.9583 45.1598ZM48.955 38.5672C48.9437 38.5648 48.9313 38.5628 48.9203 38.5628C48.9283 38.6043 48.9407 38.6224 48.9597 38.618C48.9593 38.601 48.9583 38.5839 48.955 38.5672ZM39.2531 29.9149C39.0974 29.5945 38.8251 29.5012 38.5034 29.6269C38.3644 29.6821 38.2671 29.6764 38.1314 29.6236C37.8278 29.5045 37.5598 29.5908 37.4055 29.8821C37.2385 30.1959 37.3495 30.4634 37.6161 30.6715C37.8235 30.8334 38.0621 30.912 38.3254 30.9043C38.5898 30.9086 38.8274 30.829 39.0324 30.6638C39.2777 30.4668 39.4021 30.2216 39.2531 29.9149ZM27.3749 36.7771C26.7249 36.7761 26.4379 36.948 26.4236 37.346C26.4089 37.7273 27.0052 38.3839 27.3616 38.3805C27.6889 38.3782 28.2825 37.7417 28.2928 37.3832C28.3048 36.9751 28.0045 36.7771 27.3749 36.7771Z" fill="#204C93"/>
</svg>
