<svg width="68" height="69" viewBox="0 0 68 69" fill="none" xmlns="http://www.w3.org/2000/svg">
<rect y="0.5" width="68" height="68" rx="34" fill="#E0F8F9"/>
<path fill-rule="evenodd" clip-rule="evenodd" d="M39.1714 31.7935V28.8616C39.1714 28.6356 39.0714 28.4213 38.8997 28.267C38.7292 28.1127 38.4922 28.0385 38.2583 28.0573C32.4579 28.5377 30.5695 25.8873 30.5495 25.8614C30.387 25.6283 30.1184 25.4965 29.8309 25.4999C29.5324 25.5082 29.2639 25.6625 29.1122 25.9131C28.2883 27.2637 27.189 27.9631 26.9798 28.0868C26.7309 28.234 26.5831 28.4896 26.5831 28.7745V31.5721C26.5831 33.6503 27.6023 35.5201 29.1744 36.673V38.5144C29.1744 38.5945 29.12 38.6629 29.0417 38.6887L25.564 39.7767C23.632 40.383 22.3333 42.1105 22.3333 44.0767V48.6618C22.3333 49.0175 22.6346 49.3094 23.0025 49.3094C23.3704 49.3094 23.6706 49.0175 23.6706 48.6618V44.0767C23.6706 42.6743 24.5985 41.4438 25.9744 41.0118L26.9033 40.7211V44.1829C26.0667 44.4631 25.4608 45.2487 25.4608 46.1669C25.4608 47.3195 26.4115 48.2618 27.5852 48.2618C28.7549 48.2618 29.7095 47.3198 29.7095 46.1669C29.7095 45.2474 29.1039 44.4631 28.2662 44.1817V40.6161L32.0348 44.2546C32.2381 44.4502 32.5056 44.5478 32.7703 44.5478L32.7742 44.5395C33.0309 44.5395 33.2917 44.4499 33.49 44.2663L37.8816 40.5373C38.1424 40.3195 38.2555 39.9956 38.193 39.6695C38.1305 39.3468 37.9016 39.0832 37.5783 38.9714L36.7922 38.697L36.7694 38.69C36.6911 38.6666 36.6367 38.5957 36.6367 38.5169V36.6884C38.2228 35.5626 39.1714 33.7679 39.1714 31.7935ZM28.3717 46.1669C28.3717 46.5943 28.0199 46.9417 27.5857 46.9417C27.1514 46.9417 26.7996 46.5943 26.7996 46.1669C26.7996 45.7383 27.1514 45.3909 27.5857 45.3909C28.0197 45.3909 28.3717 45.7383 28.3717 46.1669ZM32.7861 43.1618L29.4363 39.9285L29.4521 39.9239C30.0854 39.7237 30.5119 39.1586 30.5119 38.5144V37.4228C31.0968 37.6618 31.7263 37.8136 32.3835 37.8619C32.5432 37.8736 32.7068 37.8807 32.8694 37.8807H32.8733C33.713 37.8807 34.5408 37.7206 35.3062 37.4108V38.5166C35.3062 39.1512 35.7225 39.7105 36.345 39.9097L36.5353 39.9768L32.7861 43.1618ZM35.092 36.0913C34.2919 36.4787 33.3907 36.6483 32.4846 36.58C29.9211 36.3881 27.9116 34.1886 27.9116 31.5687V29.0264H27.9154C28.3585 28.7295 29.1705 28.1019 29.8972 27.1011C31.0551 28.2408 33.6197 29.5985 37.843 29.3691V31.7901C37.843 33.6395 36.7902 35.287 35.092 36.0913ZM40.9596 31.2142C40.909 31.2142 40.8623 31.2105 40.8118 31.1991C40.454 31.1203 40.2284 30.7742 40.3101 30.4284C40.7379 28.6122 40.629 27.1834 39.9951 26.2922C39.4351 25.51 38.6457 25.386 38.6379 25.3823C38.3073 25.337 38.0623 25.0663 38.0623 24.7467C38.0623 23.6788 37.7279 22.848 37.0396 22.201C35.4684 20.7232 32.6332 20.7873 32.6021 20.7873H32.5826C30.0468 20.7873 28.1374 21.5168 26.9043 22.9493C24.4813 25.7619 25.3369 30.4056 25.3446 30.4509C25.4107 30.8007 25.1735 31.1351 24.8119 31.1991C24.4502 31.2632 24.1041 31.0338 24.038 30.684C23.9952 30.4696 23.0657 25.397 25.8816 22.1258C27.3788 20.3888 29.6307 19.5013 32.5749 19.5013C32.8237 19.4939 36.0323 19.4601 37.9654 21.2763C38.8015 22.0621 39.272 23.0623 39.3731 24.2543C39.8515 24.431 40.5437 24.7993 41.0884 25.5553C41.9517 26.7661 42.1267 28.4995 41.6056 30.7068C41.5356 31.0039 41.2595 31.2068 40.9601 31.2068V31.2142H40.9596ZM39.7353 49.496C39.6158 49.496 39.4963 49.4883 39.3731 49.4695C38.3903 49.3143 37.6195 48.5269 37.5039 47.5579C37.396 46.6531 37.8469 45.79 38.6524 45.3509C38.795 45.2751 38.845 45.0972 38.845 44.961C38.845 44.2947 39.138 43.6742 39.6506 43.2539C40.1631 42.8338 40.8377 42.6558 41.5004 42.7732C42.2942 42.9096 42.9533 43.466 43.2193 44.2192C43.304 44.4653 43.3502 44.715 43.3466 44.965C43.3466 45.1015 43.3927 45.2755 43.5278 45.3475C44.3447 45.7829 44.7997 46.6498 44.6877 47.5582C44.5682 48.5309 43.8013 49.3183 42.8184 49.4698C42.2634 49.557 41.7047 49.4433 41.2422 49.148C41.1496 49.0874 41.0417 49.0874 40.9453 49.148C40.5831 49.379 40.1629 49.5 39.7312 49.5L39.7353 49.496ZM41.0959 44.0302C40.8763 44.0302 40.6681 44.1022 40.4986 44.242C40.2865 44.416 40.1634 44.6734 40.1634 44.946C40.1634 45.6009 39.832 46.1876 39.2886 46.4829C38.9534 46.6645 38.7644 47.0242 38.8108 47.4027C38.857 47.7962 39.1808 48.1294 39.5816 48.19C39.8784 48.2353 40.098 48.1445 40.2329 48.0576C40.7646 47.7208 41.4275 47.7208 41.9595 48.0576C42.0943 48.1448 42.3178 48.2356 42.6108 48.19C43.0077 48.1294 43.3315 47.7965 43.3816 47.4027C43.4277 47.0242 43.239 46.6608 42.8999 46.4829C42.3564 46.1953 42.0251 45.6083 42.0287 44.9537C42.0287 44.8514 42.0096 44.7455 41.9748 44.6433C41.867 44.3366 41.5893 44.1019 41.2733 44.0489C41.2154 44.0375 41.1537 44.0339 41.0959 44.0339V44.0302ZM38.29 43.6902C38.29 44.1635 37.8951 44.5475 37.408 44.5475C36.9208 44.5475 36.526 44.1638 36.526 43.6902C36.526 43.2169 36.9208 42.8329 37.408 42.8329C37.8949 42.8332 38.29 43.2169 38.29 43.6902ZM45.6667 43.6902C45.6667 44.1635 45.2718 44.5475 44.7847 44.5475C44.2975 44.5475 43.9027 44.1638 43.9027 43.6902C43.9027 43.2169 44.2975 42.8329 44.7847 42.8329C45.2718 42.8332 45.6667 43.2169 45.6667 43.6902ZM40.3747 41.595C40.3747 42.0683 39.9798 42.4523 39.4927 42.4523C39.0055 42.4523 38.6107 42.0686 38.6107 41.595C38.6107 41.1217 39.0055 40.738 39.4927 40.738C39.9798 40.738 40.3747 41.1217 40.3747 41.595ZM43.582 41.595C43.582 42.0683 43.1871 42.4523 42.7 42.4523C42.2128 42.4523 41.818 42.0686 41.818 41.595C41.818 41.1217 42.2128 40.738 42.7 40.738C43.1871 40.738 43.582 41.1217 43.582 41.595Z" fill="#009CA6"/>
</svg>
