<svg width="68" height="69" viewBox="0 0 68 69" fill="none" xmlns="http://www.w3.org/2000/svg">
<rect y="0.183594" width="68" height="68" rx="34" fill="#E6F4F6"/>
<path fill-rule="evenodd" clip-rule="evenodd" d="M48.9789 25.989C48.9529 25.6848 48.6982 25.4537 48.3919 25.4537H45.3273C45.1057 24.6914 44.707 24.1307 44.142 23.786C43.6584 23.4891 43.1487 23.4158 42.7464 23.4195C42.7204 23.3169 42.6801 23.2179 42.6207 23.13C42.4177 22.822 42.0557 22.6572 41.6941 22.701C39.5008 22.9501 38.2085 23.9398 38.1455 25.4096C38.1382 25.6112 38.1455 25.7981 38.1678 25.9813V25.9887C37.8318 27.2606 37.4145 28.2573 37.0009 29.0126C37.0009 29.0163 36.9972 29.0236 36.9935 29.0273C36.7755 29.4232 36.5579 29.7495 36.3512 30.0097L28.6964 19.4283C28.5081 19.1645 28.1388 19.1057 27.8731 19.2926C27.6071 19.4831 27.5481 19.8459 27.7364 20.1101L35.4462 30.776C35.4276 30.7834 35.4056 30.7907 35.3872 30.7944C35.2209 30.8201 33.9509 30.8823 24.4725 30.655C24.1142 30.6476 23.7635 30.6917 23.4312 30.7834C23.3536 30.7175 22.5929 29.9879 23.5309 27.3198C23.8299 26.4658 23.4422 25.5239 22.6299 25.1281C22.1719 24.9044 21.6403 24.886 21.1713 25.0732C20.7023 25.2601 20.333 25.6376 20.156 26.1104C19.506 27.8661 18.775 31.0986 20.8833 33.4997C20.839 33.7123 20.813 33.9286 20.8093 34.1483C20.7833 35.4861 20.7466 36.7322 20.6986 37.854C20.6745 38.4152 20.6069 38.919 20.513 39.3674C20.1059 41.3104 19.2026 42.2124 19.1847 42.2303C19.0667 42.3403 19 42.4941 19 42.6556V47.5453C19 48.4507 19.7423 49.1836 20.6506 49.1836H22.2422C22.8996 49.1836 23.4312 48.6556 23.4312 48.0033C23.4312 47.1898 22.9919 46.4603 22.3012 46.0681V44.0008C22.7186 43.638 23.7229 42.7509 24.9562 41.5265C26.0675 40.4235 26.2115 39.0707 26.1415 38.1509L35.3762 41.2774L35.4105 41.7385C35.4105 41.7385 35.5024 42.1753 36.0515 42.1336C36.6006 42.0919 36.6006 41.6836 36.6006 41.6836L36.3542 38.3441C36.3322 38.0215 36.0516 37.7761 35.7229 37.8018C35.3979 37.8239 35.1542 38.1061 35.1766 38.4287L35.2909 39.9975L25.5835 36.7135C25.3732 36.6403 25.1368 36.6951 24.9778 36.8529C24.8192 37.0104 24.7635 37.2414 24.8302 37.4541C24.8562 37.531 25.4432 39.3856 24.1249 40.694C22.5592 42.2481 21.3446 43.2705 21.3333 43.2816C21.2003 43.3916 21.1229 43.5564 21.1229 43.7286V46.4409C21.1229 46.6937 21.2853 46.9173 21.5253 46.9979C21.9609 47.1407 22.2526 47.5439 22.2452 48.0057H20.6506C20.3923 48.0057 20.1816 47.7967 20.1816 47.5402V42.8783C20.6323 42.3504 21.7546 40.7562 21.8766 37.8971C21.9246 36.7646 21.9616 35.5111 21.9873 34.1657C21.9983 33.5281 22.2606 32.9306 22.7256 32.4906C23.1909 32.0472 23.8039 31.8125 24.4462 31.8272C31.2884 31.992 35.0323 32.0362 35.5642 31.9556C35.5752 31.9556 35.5826 31.9482 35.5939 31.9482C37.4512 33.6929 40.4938 34.5174 41.7824 34.8036C41.7121 35.1263 41.6494 35.4122 41.5941 35.6355C41.5249 35.9131 41.4738 36.1943 41.4195 36.493L41.4168 36.5079L41.4204 36.5008C41.2101 37.6701 40.9884 38.8758 39.7331 39.8143C39.0941 40.2907 38.6512 40.9762 38.4852 41.7385C38.2305 42.9077 38.0532 44.4287 37.9535 46.265C37.9462 46.4262 38.0015 46.584 38.1158 46.701C38.2265 46.8184 38.3818 46.8842 38.5442 46.8842C38.7915 46.8842 38.9908 47.0822 38.9908 47.3276V47.8188C38.9908 47.9214 38.9058 48.0057 38.8025 48.0057H37.7242C37.3549 48.0057 37.0449 47.7198 37.0189 47.3533L36.8414 44.9483C36.8414 44.9483 36.8013 44.3836 36.2015 44.3836C35.6016 44.3836 35.6514 44.9836 35.6514 44.9836L35.8342 47.4459C35.9082 48.4209 36.7352 49.1833 37.7212 49.1833H38.7995C39.5528 49.1833 40.1695 48.5747 40.1695 47.8234V47.3323C40.1695 46.6579 39.7521 46.0788 39.1615 45.8367C39.2871 43.9162 39.4865 42.6954 39.6415 41.9919C39.7485 41.5045 40.0328 41.0685 40.4428 40.7605C42.0694 39.545 42.3548 37.9782 42.5837 36.7216L42.5844 36.7178L42.5873 36.7016C42.6379 36.4218 42.6852 36.1597 42.7467 35.915C43.0494 34.6726 43.6144 31.7219 43.8397 30.5383C44.4157 30.5383 45.3943 30.4941 46.7236 30.223C49.2862 29.7024 48.9982 26.1472 48.9832 25.9934L48.9789 25.989ZM40.3645 27.2131C40.5268 26.3261 40.8408 25.0726 41.4314 23.918C40.5268 24.0722 39.3601 24.4644 39.3195 25.4537C39.2861 26.2124 39.5668 26.8356 40.1465 27.3047C40.1835 27.3341 40.2278 27.3415 40.2721 27.3231C40.3018 27.3121 40.3498 27.2827 40.3645 27.2131ZM36.6902 31.3437C38.3372 32.6999 40.8994 33.3963 42.0221 33.6491C42.1104 33.222 42.1988 32.7726 42.2835 32.3417L42.2844 32.3371L42.5097 31.1789C42.6611 30.3945 42.7681 29.8301 42.7681 29.8154C42.8237 29.5111 43.1117 29.3022 43.418 29.3389C43.429 29.3389 44.5477 29.4563 46.4826 29.0641L46.4866 29.0711C47.5869 28.8474 47.7899 27.4254 47.8159 26.63H44.862C44.574 26.63 44.3303 26.4247 44.2787 26.1462C44.1567 25.4791 43.9057 25.0248 43.529 24.79C43.093 24.5189 42.5764 24.5884 42.4027 24.6252C41.9264 25.6039 41.6681 26.6631 41.5278 27.4254C41.4428 27.8875 41.1288 28.2613 40.6821 28.4261C40.5344 28.481 40.3791 28.5067 40.2241 28.5067C39.9325 28.5067 39.6408 28.4078 39.4045 28.2135C39.2275 28.0707 39.0428 27.8875 38.8692 27.6749C38.6698 28.2282 38.4482 28.7451 38.2118 29.2142L37.6172 30.2477H37.6132C37.3142 30.6914 37.0042 31.0615 36.6902 31.3437ZM21.6106 26.1575C21.4483 26.2197 21.3226 26.3445 21.2636 26.5093H21.2633V26.513C20.75 27.8949 20.163 30.3433 21.4036 32.2455C21.5476 32.0292 21.7176 31.8239 21.9096 31.6406C22.0426 31.5126 22.1903 31.3989 22.3379 31.2963C21.9246 30.6804 21.5479 29.4085 22.4156 26.9309C22.5189 26.634 22.3862 26.3117 22.1093 26.1759C21.9503 26.099 21.7729 26.0917 21.6106 26.1575Z" fill="#0595A6"/>
<path d="M36.7615 43.1849C36.7615 43.5163 36.4929 43.7849 36.1616 43.7849C35.8303 43.7849 35.5617 43.5163 35.5617 43.1849C35.5617 42.8535 35.8303 42.5849 36.1616 42.5849C36.4929 42.5849 36.7615 42.8535 36.7615 43.1849Z" fill="#0595A6"/>
</svg>
